<svg xmlns="http://www.w3.org/2000/svg" viewBox="0 0 100 100">
  <defs>
    <linearGradient id="gold" x1="0%" y1="0%" x2="100%" y2="100%">
      <stop offset="0%" stop-color="#D4AF37"/>
      <stop offset="100%" stop-color="#996515"/>
    </linearGradient>
  </defs>
  <circle cx="50" cy="50" r="50" fill="url(#gold)" />
  <g transform="translate(26, 26) scale(2)" fill="none" stroke="white" stroke-width="2" stroke-linecap="round" stroke-linejoin="round">
    <path d="M6.1 15.3a3.5 3.5 0 1 1-5.6-3.2"/>
    <path d="M4.3 6.6a3.5 3.5 0 1 1 3.2 5.6"/>
    <path d="M12.9 4.3a3.5 3.5 0 1 1-5.6 3.2"/>
    <path d="M21.6 8.5a3.5 3.5 0 1 1-3.2-5.6"/>
    <path d="M23.1 17.1a3.5 3.5 0 1 1 5.6-3.2"/>
    <path d="M17.4 22.9a3.5 3.5 0 1 1-3.2-5.6"/>
    <path d="M8.8 20.6a3.5 3.5 0 1 1 5.6 3.2"/>
    <circle cx="12" cy="12" r="3"/>
  </g>
</svg>
